<?xml version="1.0" encoding="iso-8859-1"?>
<!-- Generator: Adobe Illustrator 25.2.3, SVG Export Plug-In . SVG Version: 6.00 Build 0)  -->
<svg version="1.1" baseProfile="basic" xmlns="http://www.w3.org/2000/svg" xmlns:xlink="http://www.w3.org/1999/xlink" x="0px"
	 y="0px" viewBox="0 0 100 100" xml:space="preserve">
<path style="fill:none;stroke:#000000;stroke-width:2;stroke-linecap:round;stroke-linejoin:round;stroke-miterlimit:10;" d="
	M76.091,36.999c3.089,0.573,8.615,0.245,8.583,0.435c-2.382,14.23-3.235,22.184-0.849,35.189c1.727,9.416-5.309,9.27-7.412,5.765
	c-8.263-13.772-1.776-37.667,3.02-54.927"/>
<path style="fill:none;stroke:#000000;stroke-width:2;stroke-linecap:round;stroke-linejoin:round;stroke-miterlimit:10;" d="
	M74.037,22.989c2.698-0.127,5.395,0.472,5.395,0.472"/>
<path style="fill:none;stroke:#000000;stroke-width:2;stroke-linecap:round;stroke-linejoin:round;stroke-miterlimit:10;" d="
	M78.736,85.553c-12.312,0.978-41.347,1.869-58.508-0.107c-0.302-0.035-8.141-0.537-8.141-19.039c0-12.884,3.545-35.93,4.524-41.441
	c0.14-0.787,0.286-1.591,0.682-2.285c1.118-1.959,3.936-2.308,6.183-2.503c21.728-1.885,49.402-1.008,51.173-0.702
	c-3.719,14.74-6.922,29.083-6.922,44.285c0,17.053,7.731,21.757,11.166,21.757c18.133,0,4.981-19.111,10.41-45.325
	c0,0-2.993,0.528-4.52,0.337"/>
<path style="fill:none;stroke:#000000;stroke-width:2;stroke-linecap:round;stroke-linejoin:round;stroke-miterlimit:10;" d="
	M74.886,42.926c0,0,2.036,0.34,4.447,0.209c-4.447,22.082,1.959,31.9-1.039,33.662c-1.044,0.614-2.544,0.722-3.267-1.123"/>
<path style="fill:none;stroke:#000000;stroke-width:2;stroke-linecap:round;stroke-linejoin:round;stroke-miterlimit:10;" d="
	M19.94,20.488c0.103-1.087,0.294-1.787,0.571-2.843c0.159-0.605,0.356-1.222,0.769-1.692c0.724-0.824,1.919-1.004,3.011-1.114
	c9.966-1.006,20.014-0.577,30.021-0.147c5.498,0.236,17.837,0.992,17.837,0.992s-0.573,2.505-0.746,3.248"/>
<path style="fill:none;stroke:#000000;stroke-width:2;stroke-linecap:round;stroke-linejoin:round;stroke-miterlimit:10;" d="
	M23.013,26.741c0,0,22.432-1.825,41.647-0.658"/>
<path style="fill:none;stroke:#000000;stroke-width:2;stroke-linecap:round;stroke-linejoin:round;stroke-miterlimit:10;" d="
	M20.061,51.786c0,0,18.957,0.403,40.845-0.524"/>
<path style="fill:none;stroke:#000000;stroke-width:2;stroke-linecap:round;stroke-linejoin:round;stroke-miterlimit:10;" d="
	M19.086,58.133c0,0,19.487,0.775,41.375-0.152"/>
<path d="M20.931,44.387c0,0-0.255-3.478,1.082-10.413c0,0,8.738-0.509,15.673,0c0,0-0.976,6.278-0.976,10.413
	C30.687,44.832,20.931,44.387,20.931,44.387z"/>
<path d="M44.981,44.087c0,0-0.255-3.478,1.082-10.413c0,0,9.864-0.564,16.799-0.055c0,0-0.956,5.248-1.126,10.468
	C55.713,44.533,44.981,44.087,44.981,44.087z"/>
<path style="fill:none;stroke:#000000;stroke-width:2;stroke-linecap:round;stroke-linejoin:round;stroke-miterlimit:10;" d="
	M20.931,44.387c0,0-0.255-3.478,1.082-10.413c0,0,8.738-0.509,15.673,0c0,0-0.976,6.278-0.976,10.413
	C30.687,44.832,20.931,44.387,20.931,44.387z"/>
<path style="fill:none;stroke:#000000;stroke-width:2;stroke-linecap:round;stroke-linejoin:round;stroke-miterlimit:10;" d="
	M44.981,44.087c0,0-0.255-3.478,1.082-10.413c0,0,9.864-0.564,16.799-0.055c0,0-0.956,5.248-1.126,10.468
	C55.713,44.533,44.981,44.087,44.981,44.087z"/>
<path style="fill:none;stroke:#000000;stroke-width:2;stroke-linecap:round;stroke-linejoin:round;stroke-miterlimit:10;" d="
	M18.64,64.959c0,0,7.858,0.467,17.688,0.156"/>
<path style="fill:none;stroke:#000000;stroke-width:2;stroke-linecap:round;stroke-linejoin:round;stroke-miterlimit:10;" d="
	M19.086,71.631c0,0,12.725,0.093,17.624-0.098"/>
<path style="fill:none;stroke:#000000;stroke-width:2;stroke-linecap:round;stroke-linejoin:round;stroke-miterlimit:10;" d="
	M20.549,77.409c0,0,10.201,0.976,17.137,0.467"/>
<path style="fill:none;stroke:#000000;stroke-width:2;stroke-linecap:round;stroke-linejoin:round;stroke-miterlimit:10;" d="
	M42.861,65.115c0,0,9.151,0.7,18.303,0"/>
<path style="fill:none;stroke:#000000;stroke-width:2;stroke-linecap:round;stroke-linejoin:round;stroke-miterlimit:10;" d="
	M43.711,71.371c0,0,12.851,0.509,17.75,0.318"/>
<path style="fill:none;stroke:#000000;stroke-width:2;stroke-linecap:round;stroke-linejoin:round;stroke-miterlimit:10;" d="
	M44.748,77.564c0,0,11.728,0.976,18.664,0.467"/>
<path d="M13.55,73.934c2.354,7.253,4.284,9.353,15.567,9.735c11.283,0.382,36.988,0.318,44.177-0.382l3.191,2.431
	c0,0-17.061,0.908-35.258,0.908s-24.062-0.708-25.888-4.744S13.55,73.934,13.55,73.934z"/>
</svg>